<mxfile host="app.diagrams.net" modified="2022-02-20T05:59:11.976Z" agent="5.0 (Windows NT 10.0; Win64; x64) AppleWebKit/537.36 (KHTML, like Gecko) Chrome/98.0.4758.102 Safari/537.36" etag="Z3p9M3mJgq6GEQle-id_" version="16.6.1" type="github">
  <diagram id="eiW1NNlK5BNAlaH3XrZk" name="系统架构">
    <mxGraphModel dx="782" dy="474" grid="1" gridSize="10" guides="1" tooltips="1" connect="1" arrows="1" fold="1" page="1" pageScale="1" pageWidth="827" pageHeight="1169" math="0" shadow="0">
      <root>
        <mxCell id="0" />
        <mxCell id="1" parent="0" />
        <mxCell id="BDlo6GEQ-4Vh6Rf1Z202-1" value="Nodejs" style="rounded=0;whiteSpace=wrap;html=1;fillColor=#ed7d31;fontColor=#FFFFFF;" vertex="1" parent="1">
          <mxGeometry x="170" y="120" width="120" height="60" as="geometry" />
        </mxCell>
        <mxCell id="BDlo6GEQ-4Vh6Rf1Z202-2" value="可视化展示" style="text;html=1;strokeColor=none;fillColor=none;align=center;verticalAlign=middle;whiteSpace=wrap;rounded=0;" vertex="1" parent="1">
          <mxGeometry x="70" y="135" width="80" height="30" as="geometry" />
        </mxCell>
        <mxCell id="BDlo6GEQ-4Vh6Rf1Z202-3" value="Echarts" style="rounded=0;whiteSpace=wrap;html=1;fillColor=#ed7d31;fontColor=#FFFFFF;" vertex="1" parent="1">
          <mxGeometry x="310" y="120" width="120" height="60" as="geometry" />
        </mxCell>
        <mxCell id="BDlo6GEQ-4Vh6Rf1Z202-4" value="" style="endArrow=none;dashed=1;html=1;rounded=0;strokeColor=#a5a5a5;" edge="1" parent="1">
          <mxGeometry width="50" height="50" relative="1" as="geometry">
            <mxPoint x="50" y="200" as="sourcePoint" />
            <mxPoint x="480" y="200" as="targetPoint" />
          </mxGeometry>
        </mxCell>
        <mxCell id="BDlo6GEQ-4Vh6Rf1Z202-5" value="MapReduce" style="rounded=0;whiteSpace=wrap;html=1;fillColor=#ffc000;fontColor=#FFFFFF;" vertex="1" parent="1">
          <mxGeometry x="170" y="210" width="120" height="60" as="geometry" />
        </mxCell>
        <mxCell id="BDlo6GEQ-4Vh6Rf1Z202-6" value="数据计算" style="text;html=1;strokeColor=none;fillColor=none;align=center;verticalAlign=middle;whiteSpace=wrap;rounded=0;" vertex="1" parent="1">
          <mxGeometry x="70" y="240" width="80" height="30" as="geometry" />
        </mxCell>
        <mxCell id="BDlo6GEQ-4Vh6Rf1Z202-7" value="Spark" style="rounded=0;whiteSpace=wrap;html=1;fillColor=#ffc000;fontColor=#FFFFFF;" vertex="1" parent="1">
          <mxGeometry x="310" y="210" width="120" height="60" as="geometry" />
        </mxCell>
        <mxCell id="BDlo6GEQ-4Vh6Rf1Z202-8" value="" style="endArrow=none;dashed=1;html=1;rounded=0;strokeColor=#a5a5a5;" edge="1" parent="1">
          <mxGeometry width="50" height="50" relative="1" as="geometry">
            <mxPoint x="50" y="310" as="sourcePoint" />
            <mxPoint x="480" y="310" as="targetPoint" />
          </mxGeometry>
        </mxCell>
        <mxCell id="BDlo6GEQ-4Vh6Rf1Z202-9" value="Yarn" style="rounded=0;whiteSpace=wrap;html=1;fontColor=#FFFFFF;fillColor=#4472c4;" vertex="1" parent="1">
          <mxGeometry x="170" y="280" width="260" height="20" as="geometry" />
        </mxCell>
        <mxCell id="BDlo6GEQ-4Vh6Rf1Z202-11" value="数据存储" style="text;html=1;strokeColor=none;fillColor=none;align=center;verticalAlign=middle;whiteSpace=wrap;rounded=0;" vertex="1" parent="1">
          <mxGeometry x="70" y="335" width="80" height="30" as="geometry" />
        </mxCell>
        <mxCell id="BDlo6GEQ-4Vh6Rf1Z202-13" value="" style="endArrow=none;dashed=1;html=1;rounded=0;strokeColor=#a5a5a5;" edge="1" parent="1">
          <mxGeometry width="50" height="50" relative="1" as="geometry">
            <mxPoint x="50" y="380" as="sourcePoint" />
            <mxPoint x="480" y="380" as="targetPoint" />
          </mxGeometry>
        </mxCell>
        <mxCell id="BDlo6GEQ-4Vh6Rf1Z202-14" value="HDFS" style="rounded=0;whiteSpace=wrap;html=1;fontColor=#FFFFFF;fillColor=#5b9bd5;" vertex="1" parent="1">
          <mxGeometry x="170" y="320" width="260" height="50" as="geometry" />
        </mxCell>
        <mxCell id="BDlo6GEQ-4Vh6Rf1Z202-15" value="数据通道" style="text;html=1;strokeColor=none;fillColor=none;align=center;verticalAlign=middle;whiteSpace=wrap;rounded=0;" vertex="1" parent="1">
          <mxGeometry x="70" y="405" width="80" height="30" as="geometry" />
        </mxCell>
        <mxCell id="BDlo6GEQ-4Vh6Rf1Z202-16" value="" style="endArrow=none;dashed=1;html=1;rounded=0;strokeColor=#a5a5a5;" edge="1" parent="1">
          <mxGeometry width="50" height="50" relative="1" as="geometry">
            <mxPoint x="50" y="440" as="sourcePoint" />
            <mxPoint x="480" y="440" as="targetPoint" />
          </mxGeometry>
        </mxCell>
        <mxCell id="BDlo6GEQ-4Vh6Rf1Z202-17" value="Flume" style="rounded=0;whiteSpace=wrap;html=1;fontColor=#FFFFFF;fillColor=#a5a5a5;" vertex="1" parent="1">
          <mxGeometry x="170" y="390" width="150" height="40" as="geometry" />
        </mxCell>
        <mxCell id="BDlo6GEQ-4Vh6Rf1Z202-19" value="Sqoop" style="rounded=0;whiteSpace=wrap;html=1;fontColor=#FFFFFF;fillColor=#a5a5a5;" vertex="1" parent="1">
          <mxGeometry x="330" y="390" width="100" height="40" as="geometry" />
        </mxCell>
        <mxCell id="BDlo6GEQ-4Vh6Rf1Z202-20" value="数据源" style="text;html=1;strokeColor=none;fillColor=none;align=center;verticalAlign=middle;whiteSpace=wrap;rounded=0;" vertex="1" parent="1">
          <mxGeometry x="70" y="465" width="80" height="30" as="geometry" />
        </mxCell>
        <mxCell id="BDlo6GEQ-4Vh6Rf1Z202-22" value="Nginx Log" style="rounded=0;whiteSpace=wrap;html=1;fontColor=#FFFFFF;fillColor=#70ad47;" vertex="1" parent="1">
          <mxGeometry x="170" y="450" width="100" height="40" as="geometry" />
        </mxCell>
        <mxCell id="BDlo6GEQ-4Vh6Rf1Z202-23" value="Mysql" style="rounded=0;whiteSpace=wrap;html=1;fontColor=#FFFFFF;fillColor=#70ad47;" vertex="1" parent="1">
          <mxGeometry x="280" y="450" width="150" height="40" as="geometry" />
        </mxCell>
      </root>
    </mxGraphModel>
  </diagram>
</mxfile>
